<svg version="1.1" id="Layer_1" xmlns="http://www.w3.org/2000/svg" xmlns:xlink="http://www.w3.org/1999/xlink" x="0px" y="0px"
	 width="100%" viewBox="0 0 384 384" enable-background="new 0 0 384 384" xml:space="preserve">
<path fill="#000000" opacity="1.000000" stroke="none" 
	d="
M145.327637,279.337585 
	C135.023834,289.084290 124.689323,298.252289 113.854355,306.854919 
	C110.734032,309.332367 107.829636,310.123840 104.819580,307.050537 
	C104.704720,305.042603 106.169975,304.271851 107.172157,303.233673 
	C129.272888,280.340271 150.471695,256.641418 170.897537,232.241608 
	C173.499695,229.133209 174.750702,226.060776 174.725327,221.909164 
	C174.554245,193.931763 174.650238,165.952774 174.646759,137.974289 
	C174.645935,131.410858 174.622986,131.393784 167.910172,131.386032 
	C155.081467,131.371201 142.252701,131.367142 129.424011,131.388107 
	C127.659805,131.390991 125.895874,131.562424 123.349083,131.697266 
	C132.485321,142.226852 142.495316,150.834717 150.937347,162.007401 
	C146.664139,164.516083 142.728470,166.867218 138.749832,169.143234 
	C137.050339,170.115433 135.983978,169.033920 134.971985,167.789688 
	C124.777908,155.256332 114.582832,142.723679 104.347923,130.223679 
	C102.316910,127.743172 102.881325,126.201363 105.659691,124.862679 
	C111.809654,121.899506 117.909538,118.829796 123.984711,115.715492 
	C126.019783,114.672272 128.138092,114.643173 130.305664,114.650314 
	C167.791580,114.773827 205.278427,114.786583 242.762787,115.097038 
	C252.000137,115.173531 258.741852,121.830978 267.551575,125.376610 
	C256.717163,141.126511 244.930328,155.244736 233.734711,170.359558 
	C229.485580,167.806152 225.517365,165.484467 221.615585,163.056046 
	C218.735458,161.263458 220.356140,159.430267 221.761215,157.707230 
	C227.548309,150.610580 233.376617,143.547394 239.134369,136.427109 
	C240.038895,135.308533 241.302811,134.329575 241.385239,132.459473 
	C234.339828,130.626709 227.168503,131.578720 220.072845,131.398560 
	C214.744766,131.263306 209.407181,131.481827 204.080536,131.320786 
	C200.741913,131.219833 199.215424,132.366623 199.220566,135.890152 
	C199.264603,166.045380 199.237518,196.200836 199.156036,226.356018 
	C199.147980,229.338867 200.747406,231.287338 202.498734,233.334763 
	C223.507111,257.895142 245.141357,281.878052 268.110748,304.633575 
	C268.568451,305.087036 268.924805,305.642761 269.511536,306.381165 
	C265.998169,310.119049 262.628204,309.698151 259.157196,306.632721 
	C249.296524,297.924225 239.176804,289.488861 229.637573,280.441406 
	C216.349594,267.838501 203.500290,254.773209 190.449051,241.920242 
	C189.281906,240.770828 188.303116,239.342346 185.665680,238.700821 
	C172.519745,251.945969 159.050430,265.516937 145.327637,279.337585 
z"/>
<path fill="#000000" opacity="1.000000" stroke="none" 
	d="
M132.398346,262.376038 
	C122.102852,274.407013 112.150360,286.266174 101.915451,297.876373 
	C97.019585,303.430054 95.661819,303.420135 87.559982,300.258942 
	C112.782089,268.361511 137.787521,236.489059 161.031738,203.238022 
	C167.992126,209.231079 168.996155,216.728149 163.877289,223.157364 
	C153.509903,236.178635 143.048187,249.124786 132.398346,262.376038 
z"/>
<path fill="#000000" opacity="1.000000" stroke="none" 
	d="
M249.949081,256.104858 
	C261.579254,271.024658 272.992706,285.659698 284.455841,300.358398 
	C278.126434,303.617188 273.889374,301.806793 269.489105,296.884247 
	C248.737137,273.669067 229.622986,249.114288 209.805237,225.134720 
	C205.059311,219.392136 203.488663,214.276779 207.697571,207.873734 
	C208.587250,206.520279 208.730774,204.699753 210.715576,203.283234 
	C223.721863,220.796448 236.727112,238.308243 249.949081,256.104858 
z"/>
<path fill="#000000" opacity="1.000000" stroke="none" 
	d="
M169.651581,292.561523 
	C172.502045,290.303467 175.442856,288.666016 177.531433,285.830383 
	C175.079147,281.705048 170.943115,279.538116 167.976028,276.233154 
	C166.629822,274.733612 164.760010,273.211365 167.179993,271.303345 
	C169.301666,269.630493 170.976807,265.910248 174.616608,268.859253 
	C178.241089,271.795868 181.826736,274.784515 185.340469,277.852173 
	C187.302979,279.565552 188.982544,279.698212 191.007492,277.895630 
	C194.240738,275.017456 197.773926,272.469177 200.933731,269.517456 
	C204.316940,266.357056 205.846130,269.492065 207.867142,271.198395 
	C210.264694,273.222565 209.852158,274.963318 207.572754,276.885101 
	C204.411865,279.550049 201.444275,282.444305 197.956192,285.641663 
	C202.322174,289.395874 206.297745,292.814362 210.066559,296.055084 
	C209.733810,298.801788 207.829163,299.826050 206.557816,301.306396 
	C204.935333,303.195587 203.408142,303.188568 201.485352,301.501007 
	C197.982407,298.426605 194.186111,295.685059 190.702850,292.590088 
	C188.710327,290.819733 187.213501,290.619446 185.156509,292.486145 
	C181.101212,296.166260 176.854172,299.635071 172.500381,303.350067 
	C169.671097,301.666290 167.552567,299.193939 165.512634,296.772736 
	C166.079651,294.498383 168.087006,293.995178 169.651581,292.561523 
z"/>
</svg>